<?xml version="1.0" encoding="UTF-8" standalone="no"?>
<!-- Created with Inkscape (http://www.inkscape.org/) -->

<svg
   xmlns:ns2="ns_ai;"
   xmlns:dc="http://purl.org/dc/elements/1.1/"
   xmlns:cc="http://creativecommons.org/ns#"
   xmlns:rdf="http://www.w3.org/1999/02/22-rdf-syntax-ns#"
   xmlns:svg="http://www.w3.org/2000/svg"
   xmlns="http://www.w3.org/2000/svg"
   xmlns:sodipodi="http://sodipodi.sourceforge.net/DTD/sodipodi-0.dtd"
   xmlns:inkscape="http://www.inkscape.org/namespaces/inkscape"
   width="400"
   height="100"
   id="svg5216"
   version="1.1"
   inkscape:version="0.48.4 r9939"
   sodipodi:docname="logo_cssociety.svg">
  <defs
     id="defs5218" />
  <sodipodi:namedview
     id="base"
     pagecolor="#ffffff"
     bordercolor="#666666"
     borderopacity="1.0"
     inkscape:pageopacity="0.0"
     inkscape:pageshadow="2"
     inkscape:zoom="1.4"
     inkscape:cx="141.50973"
     inkscape:cy="-28.771353"
     inkscape:document-units="px"
     inkscape:current-layer="layer1"
     showgrid="false"
     fit-margin-top="0"
     fit-margin-left="0"
     fit-margin-right="0"
     fit-margin-bottom="0"
     inkscape:window-width="1600"
     inkscape:window-height="838"
     inkscape:window-x="0"
     inkscape:window-y="29"
     inkscape:window-maximized="1" />
  <metadata
     id="metadata5221">
    <rdf:RDF>
      <cc:Work
         rdf:about="">
        <dc:format>image/svg+xml</dc:format>
        <dc:type
           rdf:resource="http://purl.org/dc/dcmitype/StillImage" />
        <dc:title />
      </cc:Work>
    </rdf:RDF>
  </metadata>
  <g
     inkscape:label="Livello 1"
     inkscape:groupmode="layer"
     id="layer1"
     transform="translate(288.5714,-403.59083)">
    <g
       transform="translate(-1048.5714,379.45033)"
       id="g212">
      <rect
         style="fill:#e85b30"
         id="rect214"
         height="15.056"
         width="7.0479999"
         ns2:knockout="Off"
         y="26.625"
         x="940.46899" />
      <g
         id="g216">
        <path
           style="fill:#e85b30"
           inkscape:connector-curvature="0"
           id="path218"
           d="m 965.283,38.05 c 0.356,-2.812 1.532,-5.243 5.14,-5.243 2.891,0 5.236,2.339 5.259,5.227 v 3.639 h 7.031 c 0,0 0,-3.657 -0.006,-3.657 -0.022,-6.767 -5.514,-12.247 -12.284,-12.247 -6.776,0 -12.269,5.486 -12.285,12.259 v 21.349 h 7.03 c 0,-5.348 0.062,-10.698 0.005,-16.047 -0.017,-1.566 -0.116,-3.499 0.11,-5.28"
           ns2:knockout="Off" />
        <rect
           style="fill:#e85b30"
           id="rect220"
           height="33.353001"
           width="7.0479999"
           ns2:knockout="Off"
           y="52.553001"
           x="975.76398" />
        <rect
           style="fill:#5f6063"
           id="rect222"
           height="7.0479999"
           width="24.620001"
           ns2:knockout="Off"
           y="61.02"
           x="949.367" />
        <rect
           style="fill:#5f6063"
           id="rect224"
           height="7.0500002"
           width="29.792999"
           ns2:knockout="Off"
           y="43.601002"
           x="966.93903" />
        <rect
           style="fill:#5f6063"
           id="rect226"
           height="7.0479999"
           width="12.069"
           ns2:knockout="Off"
           y="61.02"
           x="984.586" />
        <path
           style="fill:#e85b30"
           inkscape:connector-curvature="0"
           id="path228"
           d="M 965.04,73.757 V 70.1 h -7.03 v 3.657 c -0.012,2.89 -2.355,5.228 -5.248,5.228 -2.875,0 -5.207,-2.311 -5.245,-5.177 V 52.401 h -7.041 v 21.778 h 0.022 c 0.234,6.578 5.628,11.843 12.264,11.843 6.778,0 12.273,-5.49 12.285,-12.266 h -0.007 z"
           ns2:knockout="Off" />
        <path
           style="fill:#5f6063"
           inkscape:connector-curvature="0"
           id="path230"
           d="m 934.967,61.004 c -2.869,-0.033 -5.187,-2.367 -5.187,-5.244 0,-2.892 2.339,-5.237 5.23,-5.247 v -0.027 h 21.33 v -7.011 h -21.35 v 10e-4 c -6.767,0.021 -12.247,5.511 -12.247,12.284 0,6.778 5.491,12.274 12.268,12.284 v -0.01 h 3.612 v -7.032 h -3.656 v 0.002 z"
           ns2:knockout="Off" />
        <path
           style="fill:#5f6063"
           inkscape:connector-curvature="0"
           id="path232"
           d="m 765.924,120.639 c 0.662,0 1.233,-0.111 1.71,-0.333 0.479,-0.222 0.978,-0.578 1.496,-1.067 l 1.239,1.271 c -1.206,1.334 -2.667,2.002 -4.388,2.002 -1.72,0 -3.147,-0.554 -4.28,-1.66 -1.136,-1.107 -1.701,-2.507 -1.701,-4.2 0,-1.693 0.577,-3.103 1.732,-4.232 1.156,-1.128 2.615,-1.693 4.379,-1.693 1.763,0 3.237,0.651 4.42,1.954 l -1.221,1.334 c -0.543,-0.521 -1.056,-0.884 -1.539,-1.09 -0.482,-0.206 -1.05,-0.309 -1.7,-0.309 -1.15,0 -2.116,0.372 -2.897,1.115 -0.781,0.743 -1.172,1.693 -1.172,2.849 0,1.156 0.387,2.121 1.162,2.897 0.776,0.774 1.696,1.162 2.76,1.162"
           ns2:knockout="Off" />
        <path
           style="fill:#5f6063"
           inkscape:connector-curvature="0"
           id="path234"
           d="m 788.827,120.811 c -1.15,1.123 -2.571,1.684 -4.265,1.684 -1.692,0 -3.115,-0.561 -4.265,-1.684 -1.15,-1.124 -1.726,-2.524 -1.726,-4.2 0,-1.677 0.575,-3.077 1.726,-4.2 1.149,-1.124 2.572,-1.685 4.265,-1.685 1.693,0 3.114,0.562 4.265,1.685 1.15,1.123 1.727,2.522 1.727,4.2 0,1.676 -0.576,3.076 -1.727,4.2 m -1.407,-7.123 c -0.776,-0.802 -1.729,-1.205 -2.857,-1.205 -1.13,0 -2.081,0.403 -2.857,1.205 -0.776,0.803 -1.164,1.778 -1.164,2.922 0,1.144 0.388,2.119 1.164,2.922 0.776,0.803 1.728,1.204 2.857,1.204 1.128,0 2.081,-0.401 2.857,-1.204 0.775,-0.803 1.163,-1.777 1.163,-2.922 0,-1.145 -0.388,-2.119 -1.163,-2.922"
           ns2:knockout="Off" />
        <polygon
           style="fill:#5f6063"
           id="polygon236"
           points="799.571,122.381 799.571,111.003 802.565,111.003 806.002,118.148 809.436,111.003 812.414,111.003 812.414,122.381 810.494,122.381 810.494,113.493 806.522,121.389 805.447,121.389 801.491,113.493 801.491,122.381 "
           ns2:knockout="Off" />
        <path
           style="fill:#5f6063"
           inkscape:connector-curvature="0"
           id="path238"
           d="m 830.5,111.995 c 0.792,0.663 1.187,1.683 1.187,3.062 0,1.378 -0.403,2.387 -1.213,3.027 -0.808,0.641 -2.047,0.961 -3.719,0.961 h -2.019 v 3.337 h -1.92 v -11.379 h 3.906 c 1.727,-0.001 2.984,0.33 3.778,0.992 m -1.359,4.696 c 0.385,-0.407 0.577,-1.003 0.577,-1.791 0,-0.788 -0.243,-1.342 -0.733,-1.668 -0.488,-0.325 -1.252,-0.488 -2.293,-0.488 h -1.955 v 4.557 h 2.231 c 1.063,0.001 1.786,-0.202 2.173,-0.61"
           ns2:knockout="Off" />
        <polygon
           style="fill:#5f6063"
           id="polygon240"
           points="843.114,111.003 843.114,120.558 848.307,120.558 848.307,122.381 841.195,122.381 841.195,111.003 "
           ns2:knockout="Off" />
        <polygon
           style="fill:#5f6063"
           id="polygon242"
           points="859.573,112.81 859.573,115.821 865.025,115.821 865.025,117.53 859.573,117.53 859.573,120.574 865.839,120.574 865.839,122.381 857.653,122.381 857.653,111.003 865.644,111.003 865.644,112.81 "
           ns2:knockout="Off" />
        <polygon
           style="fill:#5f6063"
           id="polygon244"
           points="882.279,122.381 879.48,118.1 879.399,118.1 876.6,122.381 874.206,122.381 878.113,116.537 874.482,111.003 876.858,111.003 879.399,114.844 879.48,114.844 882.021,111.003 884.397,111.003 880.767,116.537 884.674,122.381 "
           ns2:knockout="Off" />
        <path
           style="fill:#5f6063"
           inkscape:connector-curvature="0"
           id="path246"
           d="m 910.938,112.5 c -0.56,0 -1.017,0.114 -1.374,0.342 -0.36,0.228 -0.538,0.572 -0.538,1.033 0,0.462 0.178,0.813 0.538,1.058 0.357,0.244 1.119,0.507 2.285,0.79 1.168,0.282 2.046,0.678 2.637,1.188 0.592,0.51 0.888,1.262 0.888,2.254 0,0.992 -0.373,1.798 -1.123,2.417 -0.748,0.619 -1.731,0.928 -2.946,0.928 -1.778,0 -3.359,-0.613 -4.737,-1.84 l 1.204,-1.448 c 1.151,0.998 2.346,1.498 3.583,1.498 0.618,0 1.108,-0.133 1.472,-0.399 0.364,-0.265 0.546,-0.618 0.546,-1.058 0,-0.439 -0.172,-0.781 -0.514,-1.025 -0.342,-0.244 -0.929,-0.466 -1.766,-0.668 -0.836,-0.201 -1.47,-0.384 -1.903,-0.553 -0.436,-0.167 -0.821,-0.388 -1.156,-0.66 -0.672,-0.509 -1.01,-1.291 -1.01,-2.344 0,-1.052 0.383,-1.864 1.148,-2.433 0.765,-0.569 1.712,-0.854 2.84,-0.854 0.727,0 1.448,0.12 2.165,0.358 0.716,0.239 1.335,0.576 1.854,1.009 l -1.023,1.449 c -0.338,-0.304 -0.793,-0.553 -1.368,-0.749 -0.577,-0.195 -1.144,-0.293 -1.702,-0.293"
           ns2:knockout="Off" />
        <polygon
           style="fill:#5f6063"
           id="polygon248"
           points="927.354,116.178 930.462,111.003 932.562,111.003 928.33,117.889 928.33,122.381 926.378,122.381 926.378,117.889 922.145,111.003 924.244,111.003 "
           ns2:knockout="Off" />
        <path
           style="fill:#5f6063"
           inkscape:connector-curvature="0"
           id="path250"
           d="m 944.551,112.5 c -0.559,0 -1.017,0.114 -1.373,0.342 -0.359,0.228 -0.54,0.572 -0.54,1.033 0,0.462 0.181,0.813 0.54,1.058 0.356,0.244 1.12,0.507 2.286,0.79 1.165,0.282 2.044,0.678 2.637,1.188 0.592,0.51 0.887,1.262 0.887,2.254 0,0.992 -0.374,1.798 -1.124,2.417 -0.749,0.619 -1.731,0.928 -2.945,0.928 -1.779,0 -3.358,-0.613 -4.736,-1.84 l 1.204,-1.448 c 1.148,0.998 2.344,1.498 3.58,1.498 0.62,0 1.109,-0.133 1.473,-0.399 0.366,-0.265 0.547,-0.618 0.547,-1.058 0,-0.439 -0.171,-0.781 -0.514,-1.025 -0.342,-0.245 -0.93,-0.466 -1.766,-0.668 -0.835,-0.201 -1.471,-0.384 -1.904,-0.553 -0.436,-0.167 -0.819,-0.388 -1.155,-0.66 -0.673,-0.509 -1.01,-1.291 -1.01,-2.344 0,-1.052 0.383,-1.864 1.147,-2.433 0.766,-0.569 1.711,-0.854 2.84,-0.854 0.728,0 1.45,0.12 2.166,0.358 0.717,0.239 1.335,0.576 1.855,1.009 l -1.025,1.449 c -0.337,-0.304 -0.793,-0.553 -1.368,-0.749 -0.576,-0.195 -1.143,-0.293 -1.702,-0.293"
           ns2:knockout="Off" />
        <polygon
           style="fill:#5f6063"
           id="polygon252"
           points="966.356,111.003 966.356,112.761 962.905,112.761 962.905,122.381 960.985,122.381 960.985,112.761 957.533,112.761 957.533,111.003 "
           ns2:knockout="Off" />
        <polygon
           style="fill:#5f6063"
           id="polygon254"
           points="977.604,112.81 977.604,115.821 983.058,115.821 983.058,117.53 977.604,117.53 977.604,120.574 983.872,120.574 983.872,122.381 975.684,122.381 975.684,111.003 983.677,111.003 983.677,112.81 "
           ns2:knockout="Off" />
        <polygon
           style="fill:#5f6063"
           id="polygon256"
           points="993.573,122.381 993.573,111.003 996.569,111.003 1000.004,118.148 1003.438,111.003 1006.416,111.003 1006.416,122.381 1004.496,122.381 1004.496,113.493 1000.525,121.389 999.451,121.389 995.493,113.493 995.493,122.381 "
           ns2:knockout="Off" />
        <path
           style="fill:#5f6063"
           inkscape:connector-curvature="0"
           id="path258"
           d="m 1020.261,112.5 c -0.56,0 -1.018,0.114 -1.375,0.342 -0.358,0.228 -0.537,0.572 -0.537,1.033 0,0.462 0.179,0.813 0.537,1.058 0.357,0.244 1.12,0.507 2.288,0.79 1.164,0.282 2.043,0.678 2.637,1.188 0.592,0.51 0.887,1.262 0.887,2.254 0,0.992 -0.374,1.798 -1.123,2.417 -0.75,0.619 -1.73,0.928 -2.946,0.928 -1.78,0 -3.359,-0.613 -4.737,-1.84 l 1.205,-1.448 c 1.147,0.998 2.344,1.498 3.58,1.498 0.618,0 1.109,-0.133 1.474,-0.399 0.364,-0.265 0.545,-0.618 0.545,-1.058 0,-0.439 -0.169,-0.781 -0.511,-1.025 -0.342,-0.244 -0.933,-0.466 -1.767,-0.668 -0.837,-0.201 -1.473,-0.384 -1.905,-0.553 -0.435,-0.167 -0.819,-0.388 -1.156,-0.66 -0.672,-0.509 -1.008,-1.291 -1.008,-2.344 0,-1.052 0.381,-1.864 1.146,-2.433 0.765,-0.569 1.711,-0.854 2.841,-0.854 0.727,0 1.449,0.12 2.164,0.358 0.718,0.239 1.336,0.576 1.857,1.009 l -1.027,1.449 c -0.335,-0.304 -0.791,-0.553 -1.368,-0.749 -0.576,-0.195 -1.144,-0.293 -1.701,-0.293"
           ns2:knockout="Off" />
        <path
           style="fill:#5f6063"
           inkscape:connector-curvature="0"
           id="path260"
           d="m 1052.41,112.5 c -0.56,0 -1.018,0.114 -1.374,0.342 -0.358,0.228 -0.538,0.572 -0.538,1.033 0,0.462 0.18,0.813 0.538,1.058 0.356,0.244 1.12,0.507 2.286,0.79 1.166,0.282 2.044,0.678 2.637,1.188 0.593,0.51 0.889,1.262 0.889,2.254 0,0.992 -0.375,1.798 -1.124,2.417 -0.749,0.619 -1.731,0.928 -2.946,0.928 -1.78,0 -3.358,-0.613 -4.736,-1.84 l 1.204,-1.448 c 1.147,0.998 2.344,1.498 3.58,1.498 0.618,0 1.11,-0.133 1.474,-0.399 0.363,-0.265 0.545,-0.618 0.545,-1.058 0,-0.439 -0.17,-0.781 -0.512,-1.025 -0.342,-0.244 -0.932,-0.466 -1.766,-0.668 -0.836,-0.201 -1.473,-0.384 -1.906,-0.553 -0.434,-0.167 -0.819,-0.388 -1.155,-0.66 -0.673,-0.509 -1.009,-1.291 -1.009,-2.344 0,-1.052 0.381,-1.864 1.146,-2.433 0.767,-0.569 1.712,-0.854 2.84,-0.854 0.729,0 1.45,0.12 2.166,0.358 0.717,0.239 1.335,0.576 1.856,1.009 l -1.026,1.449 c -0.336,-0.304 -0.791,-0.553 -1.367,-0.749 -0.576,-0.195 -1.143,-0.293 -1.702,-0.293"
           ns2:knockout="Off" />
        <path
           style="fill:#5f6063"
           inkscape:connector-curvature="0"
           id="path262"
           d="m 1075.664,120.811 c -1.151,1.123 -2.572,1.684 -4.265,1.684 -1.694,0 -3.115,-0.561 -4.266,-1.684 -1.151,-1.124 -1.726,-2.524 -1.726,-4.2 0,-1.677 0.574,-3.077 1.726,-4.2 1.15,-1.124 2.571,-1.685 4.266,-1.685 1.692,0 3.113,0.562 4.265,1.685 1.148,1.123 1.725,2.522 1.725,4.2 0,1.676 -0.577,3.076 -1.725,4.2 m -1.408,-7.123 c -0.776,-0.802 -1.729,-1.205 -2.856,-1.205 -1.129,0 -2.083,0.403 -2.857,1.205 -0.775,0.803 -1.164,1.778 -1.164,2.922 0,1.144 0.389,2.119 1.164,2.922 0.774,0.803 1.729,1.204 2.857,1.204 1.128,0 2.08,-0.401 2.856,-1.204 0.775,-0.803 1.163,-1.777 1.163,-2.922 0,-1.145 -0.388,-2.119 -1.163,-2.922"
           ns2:knockout="Off" />
        <path
           style="fill:#5f6063"
           inkscape:connector-curvature="0"
           id="path264"
           d="m 1091.926,120.639 c 0.66,0 1.231,-0.111 1.709,-0.333 0.477,-0.222 0.976,-0.578 1.495,-1.067 l 1.239,1.271 c -1.205,1.334 -2.667,2.002 -4.388,2.002 -1.72,0 -3.146,-0.554 -4.28,-1.66 -1.135,-1.107 -1.701,-2.507 -1.701,-4.2 0,-1.693 0.578,-3.103 1.734,-4.232 1.155,-1.128 2.615,-1.693 4.378,-1.693 1.763,0 3.236,0.651 4.421,1.954 l -1.221,1.334 c -0.545,-0.521 -1.056,-0.884 -1.539,-1.09 -0.484,-0.206 -1.051,-0.309 -1.701,-0.309 -1.151,0 -2.116,0.372 -2.898,1.115 -0.78,0.743 -1.171,1.693 -1.171,2.849 0,1.156 0.388,2.121 1.164,2.897 0.773,0.774 1.693,1.162 2.759,1.162"
           ns2:knockout="Off" />
        <rect
           style="fill:#5f6063"
           id="rect266"
           height="11.379"
           width="1.92"
           ns2:knockout="Off"
           y="111.002"
           x="1105.307" />
        <polygon
           style="fill:#5f6063"
           id="polygon268"
           points="1119.55,112.81 1119.55,115.821 1125.003,115.821 1125.003,117.53 1119.55,117.53 1119.55,120.574 1125.815,120.574 1125.815,122.381 1117.629,122.381 1117.629,111.003 1125.62,111.003 1125.62,112.81 "
           ns2:knockout="Off" />
        <polygon
           style="fill:#5f6063"
           id="polygon270"
           points="1143.268,111.003 1143.268,112.761 1139.816,112.761 1139.816,122.381 1137.895,122.381 1137.895,112.761 1134.444,112.761 1134.444,111.003 "
           ns2:knockout="Off" />
        <polygon
           style="fill:#5f6063"
           id="polygon272"
           points="1154.792,116.178 1157.9,111.003 1160,111.003 1155.769,117.889 1155.769,122.381 1153.814,122.381 1153.814,117.889 1149.583,111.003 1151.681,111.003 "
           ns2:knockout="Off" />
      </g>
    </g>
  </g>
</svg>
